<?xml version="1.0" standalone="no"?>
<!DOCTYPE svg PUBLIC "-//W3C//DTD SVG 20010904//EN"
 "http://www.w3.org/TR/2001/REC-SVG-20010904/DTD/svg10.dtd">
<svg version="1.0" xmlns="http://www.w3.org/2000/svg"
 width="665.000000pt" height="486.000000pt" viewBox="0 0 665.000000 486.000000"
 preserveAspectRatio="xMidYMid meet">

<g transform="translate(0.000000,486.000000) scale(0.100000,-0.100000)"
fill="#000000" stroke="none">
<path d="M2250 4791 c-78 -16 -158 -76 -220 -166 -16 -23 -37 -45 -45 -49 -9
-3 -63 -6 -120 -6 -121 0 -148 -8 -176 -52 -28 -46 -22 -152 13 -230 55 -120
151 -189 287 -207 66 -9 78 -14 112 -47 21 -21 44 -54 51 -73 15 -42 14 -198
0 -256 -6 -22 -22 -84 -36 -139 -60 -230 -14 -438 130 -582 l69 -69 3 -323 3
-322 -54 -58 c-67 -71 -77 -89 -77 -146 0 -91 25 -106 175 -106 117 0 155 11
196 56 44 50 116 185 142 269 24 76 25 96 31 410 4 182 9 344 12 361 7 39 -12
113 -32 121 -25 9 -74 -18 -91 -51 -14 -27 -17 -80 -18 -396 -2 -298 -5 -375
-18 -417 -20 -71 -50 -131 -84 -171 -26 -30 -34 -34 -100 -39 -51 -4 -73 -2
-73 5 0 6 19 31 43 54 82 82 78 53 75 620 -2 277 -7 511 -12 520 -7 16 -12 15
-55 -9 -25 -15 -49 -32 -53 -38 -4 -5 -8 -40 -8 -77 0 -37 -4 -69 -9 -72 -14
-9 -58 103 -77 193 -21 108 -14 186 28 317 27 86 32 114 32 209 1 175 -43 286
-137 344 -29 17 -70 27 -191 46 -27 5 -53 20 -87 52 -46 43 -60 69 -74 139
l-6 31 103 5 c126 6 146 15 229 108 82 91 124 112 232 113 115 1 177 -22 243
-88 59 -59 71 -98 62 -209 -8 -97 -28 -146 -78 -198 -54 -56 -84 -61 -123 -20
-37 39 -45 91 -40 264 5 142 4 154 -14 170 -29 27 -76 33 -96 13 -13 -13 -18
-39 -19 -123 -6 -251 7 -338 62 -404 31 -38 119 -88 154 -88 49 0 102 24 147
67 27 25 52 43 56 39 4 -4 15 -47 25 -95 25 -122 77 -239 153 -342 63 -84 143
-165 451 -454 247 -232 316 -320 366 -464 20 -56 23 -85 22 -196 0 -108 -4
-140 -22 -190 -44 -119 -116 -198 -214 -232 -50 -18 -369 -30 -492 -18 -84 7
-94 19 -49 54 25 21 33 21 227 15 227 -8 222 -10 232 68 l6 45 -85 11 c-48 6
-103 20 -125 31 -82 42 -164 163 -178 262 -13 95 37 182 131 225 76 36 130 32
229 -16 70 -35 86 -39 109 -31 58 22 39 102 -36 145 -110 65 -251 71 -362 17
-115 -57 -183 -162 -192 -300 -7 -95 10 -160 66 -251 21 -36 37 -68 34 -72 -2
-5 -15 -8 -29 -8 -90 0 -214 -123 -214 -212 0 -61 23 -104 62 -116 45 -14
1384 -8 1578 7 120 9 170 9 290 -4 189 -20 186 -19 206 -61 22 -45 53 -59 170
-75 312 -42 709 58 875 221 69 68 83 105 49 132 -38 31 -65 22 -173 -60 -74
-56 -180 -103 -299 -132 -63 -16 -131 -22 -283 -27 -111 -3 -221 -3 -245 1
l-45 6 0 48 0 47 -65 21 c-36 11 -75 26 -87 32 -14 8 -24 9 -28 2 -3 -5 -31
-10 -61 -10 -48 0 -54 2 -54 21 0 18 4 20 23 14 64 -19 64 -19 124 45 71 76
107 135 133 219 24 76 26 187 5 256 l-14 49 55 57 c33 35 66 84 83 123 30 66
52 85 114 100 15 3 27 10 27 14 0 4 -28 30 -61 57 -34 28 -78 75 -99 105 -91
132 -172 181 -310 188 -70 3 -95 0 -142 -18 -126 -47 -217 -173 -226 -313 l-4
-73 -47 -26 c-84 -48 -157 -129 -204 -225 -38 -81 -42 -94 -45 -187 -7 -167
29 -277 124 -376 l57 -60 -124 -1 c-68 -1 -190 -3 -271 -4 -96 -2 -148 1 -148
7 0 6 24 51 54 102 30 50 67 127 83 171 24 70 27 95 27 195 0 176 -42 298
-152 447 -50 67 -386 402 -590 589 -91 83 -187 215 -222 305 -30 79 -52 186
-70 354 -23 216 -30 249 -65 322 -56 114 -169 199 -296 223 -58 11 -176 11
-229 1z m2578 -1577 c58 -24 101 -72 118 -133 19 -65 13 -119 -22 -178 -30
-52 -68 -80 -130 -94 -60 -14 -109 -2 -177 41 -150 95 -140 289 18 361 50 23
142 25 193 3z m-343 -441 c57 -68 161 -113 266 -113 45 0 46 -1 58 -42 22 -72
16 -170 -14 -235 -24 -54 -113 -153 -136 -153 -6 0 -7 43 -3 104 5 73 3 119
-6 149 -14 52 -59 111 -101 132 -25 14 -33 14 -64 1 -19 -8 -35 -17 -35 -19 0
-3 15 -36 32 -73 29 -61 33 -81 36 -169 4 -136 -7 -219 -31 -223 -32 -6 -148
58 -203 112 -43 42 -56 63 -73 120 -51 168 -10 292 141 425 72 63 72 63 88 42
8 -13 28 -38 45 -58z"/>
<path d="M4646 3085 c-35 -36 -8 -105 42 -105 22 0 52 34 52 60 0 44 -64 74
-94 45z"/>
<path d="M4811 3074 c-25 -18 -28 -60 -5 -92 30 -43 84 -14 84 45 0 47 -43 72
-79 47z"/>
<path d="M4577 4753 c-40 -40 79 -222 218 -333 97 -76 172 -118 315 -174 187
-73 254 -88 376 -84 l106 3 -7 -40 c-7 -43 -60 -145 -101 -194 -43 -52 -134
-99 -265 -137 -110 -32 -140 -37 -266 -42 -197 -6 -273 16 -417 126 -55 41
-77 52 -101 50 -22 -2 -31 -9 -33 -25 -6 -42 37 -99 141 -187 32 -26 56 -51
53 -54 -3 -2 -11 0 -18 5 -7 6 -35 13 -63 16 -27 3 -93 11 -145 17 -82 9 -250
5 -250 -7 0 -2 6 -19 14 -38 23 -55 63 -69 176 -61 168 11 258 24 282 40 20
12 28 13 55 1 17 -7 38 -26 46 -42 27 -51 71 -82 180 -127 155 -65 239 -81
432 -81 137 0 171 3 240 23 227 66 418 226 532 447 69 133 112 173 262 246 69
34 128 63 131 66 8 7 -39 40 -111 79 -47 25 -87 57 -133 109 -91 101 -150 130
-266 130 -76 0 -93 -4 -152 -33 -48 -23 -83 -51 -121 -94 l-55 -60 -69 -5
c-186 -14 -469 75 -648 202 -56 40 -120 103 -222 218 -34 39 -48 47 -76 47
-18 0 -37 -3 -40 -7z m1492 -426 c40 -27 101 -115 101 -148 0 -9 -19 -29 -42
-45 -79 -52 -110 -88 -160 -189 -100 -197 -168 -272 -320 -351 -120 -62 -216
-85 -353 -87 -142 -1 -255 22 -360 75 -44 22 -82 43 -85 45 -3 3 31 2 75 -2
113 -10 223 8 363 59 160 58 235 99 302 166 66 64 112 154 142 275 29 118 70
181 143 220 47 25 142 16 194 -18z"/>
<path d="M5946 4261 c-38 -42 -11 -121 41 -121 29 0 62 36 63 66 0 31 -37 74
-64 74 -13 0 -31 -9 -40 -19z"/>
<path d="M311 4704 c-24 -30 -76 -161 -91 -230 -6 -27 -10 -111 -8 -189 l3
-140 -55 -95 c-79 -135 -89 -160 -99 -240 -13 -98 0 -180 38 -238 16 -26 39
-79 49 -118 11 -40 25 -81 31 -93 18 -33 78 -40 134 -16 18 7 18 6 1 -31 -37
-87 -56 -164 -61 -249 -9 -158 30 -275 177 -525 34 -58 55 -108 66 -160 9 -41
22 -78 28 -82 16 -11 64 -10 87 2 50 27 3 212 -88 346 -95 139 -144 274 -144
394 0 90 20 161 70 255 54 100 57 119 25 144 l-27 21 17 45 c10 25 21 45 25
45 4 0 17 -13 29 -29 42 -58 239 -104 347 -83 73 15 141 49 188 94 22 21 41
37 42 36 37 -57 75 -146 71 -164 -3 -12 -60 -72 -126 -134 -184 -173 -266
-319 -277 -497 -3 -46 -9 -83 -13 -83 -4 0 -19 26 -33 58 -77 173 -64 308 43
450 27 37 50 72 50 78 0 20 -49 64 -71 64 -13 0 -39 -18 -63 -43 -79 -83 -136
-225 -136 -343 0 -142 66 -314 163 -422 37 -43 58 -76 71 -118 26 -87 40 -104
81 -104 74 0 91 54 54 170 -47 149 -32 343 36 487 39 79 77 122 218 246 87 77
94 97 47 142 -16 16 -28 30 -27 32 2 2 28 -10 58 -27 52 -29 107 -38 144 -24
23 9 41 49 64 147 11 48 32 110 47 139 56 110 40 228 -53 391 -75 132 -82 155
-83 272 0 141 -58 373 -106 426 -27 30 -55 23 -150 -40 -93 -62 -154 -119
-199 -186 -25 -38 -28 -39 -88 -42 -34 -1 -76 -4 -93 -8 -29 -5 -32 -2 -50 37
-26 58 -114 145 -208 207 -90 58 -124 64 -155 25z m125 -162 c21 -16 55 -47
75 -69 36 -39 46 -62 69 -151 11 -44 12 -44 47 -37 20 3 52 15 72 26 56 30
130 26 207 -12 34 -17 67 -28 73 -25 5 4 13 28 17 54 11 79 33 119 100 182 36
33 69 60 73 60 9 0 24 -33 41 -95 7 -22 15 -110 19 -195 8 -173 5 -165 116
-343 65 -105 68 -146 25 -325 -17 -72 -36 -135 -41 -138 -28 -17 -90 82 -125
195 -30 100 -54 131 -99 131 -40 0 -69 -30 -86 -90 -17 -57 -82 -124 -130
-134 -28 -5 -37 -3 -51 15 -26 31 -23 44 22 93 43 47 50 78 24 114 -14 20 -24
22 -100 22 -71 0 -87 -3 -104 -20 -30 -30 -25 -63 20 -115 45 -52 48 -63 22
-95 -13 -17 -24 -20 -45 -15 -41 11 -112 96 -126 152 -16 63 -26 73 -71 73
-52 0 -68 -23 -91 -126 -19 -88 -50 -153 -88 -188 -13 -12 -25 -16 -30 -10
-12 13 -91 255 -91 279 0 51 35 146 79 220 94 155 92 148 90 308 0 78 4 165
10 192 6 28 13 60 16 73 7 29 14 28 61 -6z"/>
<path d="M548 4043 c-25 -30 -28 -52 -13 -89 26 -63 93 -69 124 -11 37 70 -61
158 -111 100z"/>
<path d="M945 4049 c-68 -38 -55 -120 22 -143 51 -16 96 80 61 127 -17 21 -58
29 -83 16z"/>
<path d="M4342 4568 c-30 -33 -38 -73 -16 -89 9 -8 80 -75 158 -149 77 -75
169 -153 203 -174 85 -51 198 -90 316 -110 109 -19 168 -15 234 16 75 35 63
72 -26 83 -211 27 -294 50 -433 122 -75 38 -111 65 -183 138 -50 49 -107 111
-128 138 -31 39 -44 47 -71 47 -21 0 -40 -8 -54 -22z"/>
<path d="M2156 4497 c-36 -26 -16 -97 26 -97 35 0 58 19 58 49 0 44 -50 73
-84 48z"/>
<path d="M4216 4350 c-34 -85 -14 -192 46 -246 40 -37 208 -125 308 -161 175
-64 453 -118 543 -107 116 15 332 103 344 140 2 7 -8 14 -21 18 -26 6 -47 -1
-136 -50 -59 -32 -132 -32 -246 2 -49 14 -132 34 -184 44 -129 25 -230 67
-390 163 -144 87 -184 120 -195 164 -8 33 -32 73 -44 73 -5 0 -16 -18 -25 -40z"/>
<path d="M1481 3343 c-17 -25 -31 -49 -31 -53 0 -12 45 -47 147 -113 161 -106
259 -224 315 -382 51 -142 45 -264 -20 -395 -70 -140 -207 -217 -347 -193
-178 31 -305 164 -313 330 -5 94 16 158 73 221 61 68 128 96 225 97 64 0 85
-5 144 -32 37 -18 76 -33 85 -33 22 0 54 55 46 80 -9 30 -59 66 -122 90 -154
57 -317 25 -446 -90 -70 -63 -123 -163 -138 -263 -28 -181 92 -393 274 -481
118 -58 245 -65 377 -21 62 21 171 118 231 207 113 166 122 388 25 595 -77
162 -177 274 -351 392 -150 102 -138 99 -174 44z"/>
<path d="M5681 3185 c-103 -23 -185 -68 -255 -137 -77 -78 -120 -153 -146
-254 -25 -97 -25 -160 -1 -256 40 -157 121 -262 249 -325 73 -37 80 -38 181
-38 154 0 185 18 333 187 66 76 78 101 78 167 0 76 -27 151 -69 191 -52 49
-159 92 -249 98 -66 4 -76 2 -112 -22 -79 -52 -98 -118 -57 -191 28 -50 69
-72 104 -56 24 11 25 15 20 66 -7 65 -2 68 108 63 l70 -3 23 -45 c33 -66 30
-135 -8 -188 -89 -123 -249 -164 -380 -97 -86 43 -163 164 -176 276 -18 158
80 335 225 407 44 21 73 27 146 30 158 7 269 -36 384 -149 68 -66 141 -206
165 -316 44 -202 -3 -453 -119 -628 -115 -172 -289 -297 -510 -364 -148 -45
-215 -54 -370 -54 -194 1 -399 40 -735 138 -368 107 -638 143 -974 131 -364
-13 -572 -65 -839 -212 -165 -91 -248 -130 -338 -159 -46 -15 -109 -35 -139
-45 -31 -10 -94 -26 -140 -35 -47 -9 -96 -22 -109 -28 -23 -12 -23 -12 15 -19
138 -25 356 0 546 63 144 46 190 67 348 159 90 52 248 107 346 121 130 18 387
26 539 18 257 -15 403 -42 720 -131 396 -112 499 -130 745 -131 154 -1 202 3
286 21 329 71 590 246 738 495 101 169 142 338 133 542 -10 219 -69 367 -209
520 -137 150 -382 232 -567 190z"/>
<path d="M1940 2126 c-27 -35 -66 -76 -85 -91 -51 -38 -150 -81 -223 -96 -114
-24 -303 18 -533 116 -250 108 -358 133 -492 115 -199 -26 -347 -161 -386
-351 -14 -65 3 -158 40 -231 34 -67 116 -142 184 -167 71 -27 178 -25 233 3
50 26 111 85 135 130 33 62 30 167 -6 228 -34 59 -83 90 -141 90 -76 0 -126
-38 -126 -96 0 -41 26 -58 77 -50 38 5 48 3 69 -17 28 -26 30 -57 8 -105 -29
-62 -119 -97 -189 -74 -85 28 -144 113 -153 217 -7 87 14 137 86 205 78 75
132 92 261 85 107 -6 166 -24 349 -106 62 -28 145 -62 185 -75 90 -30 264 -50
394 -44 88 3 108 7 169 37 86 42 207 161 244 240 l24 53 -27 24 c-16 13 -32
24 -37 24 -5 0 -32 -29 -60 -64z"/>
<path d="M2595 1740 c-60 -21 -150 -54 -200 -74 -241 -98 -512 -135 -755 -106
-125 16 -239 45 -379 96 -99 37 -133 45 -167 41 -82 -9 -120 -60 -76 -101 43
-39 364 -142 527 -170 128 -22 330 -35 400 -25 114 16 321 68 425 108 138 52
250 99 275 114 11 7 51 26 89 42 38 16 65 30 60 32 -5 2 -8 21 -6 43 l4 40
-43 -1 c-24 0 -93 -17 -154 -39z"/>
<path d="M2751 990 c-115 -25 -191 -113 -191 -225 0 -71 24 -130 68 -167 33
-28 124 -65 239 -98 40 -11 79 -28 88 -36 39 -39 -3 -107 -73 -118 -54 -9
-144 16 -213 59 -33 20 -64 33 -68 29 -56 -69 -81 -106 -76 -114 3 -6 32 -28
63 -49 179 -121 409 -103 508 41 22 31 29 55 32 103 5 83 -10 125 -62 173 -35
33 -65 47 -157 76 -149 47 -181 66 -177 108 7 76 109 95 218 41 l62 -30 29 41
c16 22 37 49 45 59 21 26 5 43 -76 80 -71 32 -179 44 -259 27z"/>
<path d="M190 974 c0 -10 20 -63 44 -118 24 -56 90 -207 145 -336 56 -129 112
-253 124 -275 22 -39 24 -40 84 -43 l61 -3 27 58 c15 32 39 90 55 128 15 39
73 177 129 307 56 130 104 250 107 267 l7 31 -90 0 -90 0 -17 -42 c-10 -24
-54 -135 -98 -248 -44 -113 -84 -216 -90 -230 -9 -24 -11 -22 -30 30 -50 136
-120 312 -156 395 l-39 90 -87 3 c-76 2 -86 1 -86 -14z"/>
<path d="M1100 607 c0 -285 3 -386 12 -395 9 -9 86 -12 285 -12 l273 0 0 85 0
85 -200 0 -200 0 0 75 0 75 165 0 165 0 0 75 0 75 -165 0 -165 0 0 78 0 77
177 -2 c98 -2 188 -1 201 2 20 5 22 11 22 69 0 105 26 96 -291 96 l-279 0 0
-383z"/>
<path d="M1790 911 c0 -65 3 -80 17 -85 10 -4 62 -6 116 -5 l99 2 3 -292 c3
-255 5 -295 20 -311 31 -35 127 -34 146 2 6 11 10 132 9 313 l0 295 116 -1
c64 0 119 2 122 6 4 4 7 39 7 78 l0 72 -327 3 -328 2 0 -79z"/>
<path d="M4003 983 c-14 -3 -33 -23 -50 -51 -15 -26 -59 -99 -98 -162 -39 -63
-82 -141 -96 -172 -13 -32 -26 -58 -29 -57 -4 0 -50 77 -220 372 l-36 62 -84
0 -85 0 -3 -374 c-2 -267 1 -378 9 -387 18 -22 105 -18 129 6 19 19 20 33 20
233 l0 212 22 -35 c84 -137 191 -290 208 -295 43 -14 92 25 163 130 38 55 80
124 95 153 14 28 29 52 32 52 3 0 4 -98 2 -219 -3 -254 -4 -251 82 -251 33 0
58 5 65 14 8 9 10 121 9 392 l-3 379 -55 1 c-30 1 -65 0 -77 -3z"/>
<path d="M4616 968 c-14 -22 -276 -585 -276 -593 0 -3 -13 -34 -30 -70 -16
-36 -30 -70 -30 -75 0 -33 135 -43 163 -12 9 10 30 49 45 88 16 38 34 69 40
68 7 -1 84 -2 171 -2 l159 -2 27 -69 c36 -95 46 -103 136 -99 67 3 74 5 72 23
-1 20 -177 418 -286 648 l-56 117 -60 0 c-52 0 -63 -3 -75 -22z m123 -332 c28
-66 51 -120 51 -120 0 -2 -215 6 -218 8 -1 2 13 32 31 67 18 35 43 88 55 118
12 30 24 52 26 50 2 -2 27 -58 55 -123z"/>
<path d="M5234 978 c-4 -7 -7 -179 -5 -383 2 -302 5 -373 16 -384 9 -9 33 -14
67 -13 78 2 88 18 88 146 l0 101 70 0 70 0 66 -105 c94 -149 82 -140 186 -140
48 0 88 4 88 8 0 10 -90 152 -143 226 -40 56 -41 59 -22 70 11 6 39 29 62 51
127 124 71 349 -104 415 -47 17 -78 20 -243 20 -136 0 -191 -3 -196 -12z m378
-162 c61 -40 75 -108 35 -167 -29 -44 -71 -58 -174 -58 l-83 -1 0 124 0 124
98 -2 c73 -2 104 -7 124 -20z"/>
<path d="M5960 910 l0 -80 118 0 118 0 -4 -285 c-3 -156 -2 -295 2 -309 11
-43 105 -62 145 -28 21 17 21 25 24 322 l2 305 123 -4 122 -3 0 81 0 81 -325
0 -325 0 0 -80z"/>
</g>
</svg>
